<?xml version="1.0" encoding="utf-8"?>
<!-- Generator: Adobe Illustrator 16.0.0, SVG Export Plug-In . SVG Version: 6.00 Build 0)  -->
<!DOCTYPE svg PUBLIC "-//W3C//DTD SVG 1.1//EN" "http://www.w3.org/Graphics/SVG/1.1/DTD/svg11.dtd">
<svg version="1.1" id="Layer_1" xmlns="http://www.w3.org/2000/svg" xmlns:xlink="http://www.w3.org/1999/xlink" x="0px" y="0px"
	 width="512px" height="512px" viewBox="0 0 512 512" enable-background="new 0 0 512 512" xml:space="preserve">
<g>
	<g>
		<path fill="#2A4034" d="M503.816,130.068l-16.771-16.888c-5.278-5.274-12.301-8.18-19.806-8.18c-7.501,0-14.532,2.905-19.811,8.18
			L256.114,304.503L64.579,112.968c-5.27-5.274-12.301-8.176-19.802-8.176s-14.536,2.901-19.81,8.176L8.192,129.751
			c-10.922,10.915-10.922,28.693,0,39.607l228.046,228.866c5.27,5.27,12.292,8.982,19.86,8.982h0.087
			c7.505,0,14.528-3.717,19.797-8.982l227.834-228.246c5.278-5.27,8.175-12.504,8.184-20.005
			C512,142.468,509.095,135.333,503.816,130.068z"/>
	</g>
</g>
</svg>
